<?xml version="1.0" encoding="utf-8"?>
<!-- Generator: Adobe Illustrator 25.2.0, SVG Export Plug-In . SVG Version: 6.00 Build 0)  -->
<svg version="1.1" id="Layer_1" xmlns="http://www.w3.org/2000/svg" xmlns:xlink="http://www.w3.org/1999/xlink" x="0px" y="0px"
	 viewBox="0 0 1000 1000" style="enable-background:new 0 0 1000 1000;" xml:space="preserve">
<style type="text/css">
	.st0{fill:#BCBEC0;}
</style>
<g>
	<path class="st0" d="M753.1,406.8c-104.3,0-188.8,84.6-188.8,188.8c0,104.3,84.5,188.8,188.8,188.8s188.8-84.5,188.8-188.8
		S857.4,406.8,753.1,406.8z M752.2,741c-13.4,0-24.1-10.8-24.1-24.1c0-13.4,10.8-24.1,24.1-24.1c13.4,0,24.1,10.8,24.1,24.1
		C776.3,730.3,765.5,741,752.2,741z M776.3,620.5c0,13.1-10.8,24-24.1,24c-13.4,0-24.1-10.7-24.1-24V475.8c0-13.1,10.8-24,24.1-24
		c13.4,0,24.1,10.7,24.1,24V620.5z"/>
	<path class="st0" d="M491.7,710.1c-33.2,0.1-60.2,26.8-60.2,59.7c0,32.9,27,59.7,60.2,59.7s60.2-26.8,60.2-59.7
		C551.9,736.9,524.9,710.1,491.7,710.1z"/>
	<path class="st0" d="M907.4,402.7c4.5,4.8,8.9,9.7,13.2,14.6c3.4,3.9,7.5,6.7,11.9,8.4c3.5,1.4,7.1,2,10.8,2c7,0,14.1-2.5,19.8-7.5
		c12.5-11,13.8-30.1,2.9-42.8C847.6,240.9,674.7,162.6,491.7,162.6S135.9,240.9,17.4,377.4c-10.9,12.6-9.7,31.8,2.9,42.8
		c12.5,11.1,31.6,9.8,42.5-2.9c107-123.3,263.3-194.1,428.9-194.1C650.6,223.2,801.1,288.4,907.4,402.7z"/>
	<path class="st0" d="M523.3,504.7c-7.4,18.8-12.7,38.7-15.3,59.4c-5.4-0.4-10.9-0.6-16.3-0.6c-71.8,0-138.3,34.9-177.9,93.6
		c-5.8,8.7-15.3,13.3-24.9,13.3c-5.8,0-11.7-1.6-16.9-5.2c-13.8-9.4-17.3-28.3-8-42.1c50.8-75.3,135.9-120.2,227.7-120.2
		C502.4,502.9,512.9,503.5,523.3,504.7z"/>
	<path class="st0" d="M662.4,365.7c-25.1,9.9-48.2,23.8-68.5,41c-32.9-8.7-67.2-13.3-102.2-13.3c-119.2,0-230.1,52.5-304.2,144.1
		c-10.5,13-29.5,15-42.4,4.4c-12.9-10.6-14.8-29.7-4.3-42.7c85.6-105.8,213.5-166.5,351-166.4C551.3,332.8,609.1,344.2,662.4,365.7z
		"/>
</g>
</svg>
